%TF.GenerationSoftware,KiCad,Pcbnew,9.99.0-4247-g42f93c0d15*%
%TF.CreationDate,2026-05-04T15:22:08-04:00*%
%TF.ProjectId,toro-blinky,746f726f-2d62-46c6-996e-6b792e6b6963,rev?*%
%TF.SameCoordinates,Original*%
%TF.FileFunction,Profile,NP*%
%FSLAX46Y46*%
G04 Gerber Fmt 4.6, Leading zero omitted, Abs format (unit mm)*
G04 Created by KiCad (PCBNEW 9.99.0-4247-g42f93c0d15) date 2026-05-04 15:22:08*
%MOMM*%
%LPD*%
G01*
G04 APERTURE LIST*
%TA.AperFunction,Profile*%
%ADD10C,0.100000*%
%TD*%
G04 APERTURE END LIST*
D10*
X55802946Y-64736905D02*
X55515194Y-65948250D01*
X165892069Y-137596422D02*
X166231948Y-136139924D01*
X96606246Y-64651524D02*
X95917176Y-64899695D01*
X166435857Y-117654818D02*
X166127335Y-116185956D01*
X62896210Y-38537488D02*
G75*
G02*
X63445085Y-37385282I11833590J-4930312D01*
G01*
X49824834Y-156833141D02*
G75*
G02*
X49327363Y-156340562I2404166J2925541D01*
G01*
X104092952Y-62626181D02*
X103144471Y-62736801D01*
X158879096Y-95177806D02*
X157695774Y-91956465D01*
X123651809Y-30240373D02*
G75*
G02*
X124115794Y-29847651I2465491J-2442427D01*
G01*
X56775927Y-161756635D02*
X57676740Y-162195305D01*
X164804993Y-140441040D02*
X165252875Y-139558748D01*
X70449987Y-42740651D02*
G75*
G02*
X69937445Y-42062578I5462913J4662051D01*
G01*
X52278877Y-79504720D02*
X52018021Y-80691375D01*
X55187284Y-67301079D02*
X54863348Y-68610000D01*
X91019482Y-64829445D02*
X90369160Y-64047128D01*
X121402310Y-33187410D02*
X120737101Y-34079393D01*
X135246334Y-45055695D02*
X134778474Y-44202004D01*
X93294664Y-65978210D02*
X92875166Y-66185153D01*
X63445083Y-37385281D02*
G75*
G02*
X63932059Y-36829039I1460017J-786919D01*
G01*
X152205433Y-153552530D02*
X154243472Y-152605645D01*
X93820288Y-65730923D02*
X93294664Y-65978210D01*
X115821833Y-41752153D02*
X114602821Y-44490000D01*
X97412534Y-64343404D02*
X96606246Y-64651524D01*
X56354641Y-62394238D02*
X56148660Y-63225605D01*
X143034838Y-156595473D02*
X145540606Y-155908249D01*
X107105419Y-62066355D02*
X107053238Y-62205021D01*
X142492934Y-58165672D02*
X141109589Y-55440765D01*
X56569515Y-61570859D02*
X56354641Y-62394238D01*
X50046144Y-89477862D02*
X49780139Y-91046394D01*
X60090160Y-46982502D02*
X59759548Y-48140902D01*
X166127335Y-116185956D02*
X165741118Y-114830726D01*
X67575110Y-38537864D02*
X66626258Y-37412028D01*
X65962098Y-36846435D02*
X65646124Y-36661337D01*
X76191082Y-165117412D02*
X78371011Y-165061764D01*
X50556785Y-157452101D02*
X51052877Y-157879002D01*
X149172227Y-71643557D02*
X148459170Y-70188216D01*
X47396463Y-120746003D02*
X47328418Y-130748895D01*
X135648987Y-45750000D02*
X135246334Y-45055695D01*
X60388763Y-46050000D02*
X60090160Y-46982502D01*
X48530945Y-100700896D02*
X48198165Y-103798668D01*
X130575487Y-37625358D02*
G75*
G02*
X129752000Y-36311893I10777413J7671858D01*
G01*
X66491011Y-165207733D02*
X69911011Y-165207363D01*
X59175185Y-50490000D02*
X58940701Y-51538404D01*
X99722324Y-63392984D02*
X98853859Y-63752647D01*
X131590019Y-38910000D02*
G75*
G02*
X130575487Y-37625358I12372281J10813800D01*
G01*
X115678757Y-161995393D02*
X117984613Y-161585716D01*
X86156656Y-164882738D02*
X88451011Y-164844817D01*
X165567875Y-138736934D02*
G75*
G02*
X165252878Y-139558749I-6694875J2094834D01*
G01*
X62896210Y-38537488D02*
X62258850Y-40244779D01*
X52529219Y-78450000D02*
X52278877Y-79504720D01*
X120737101Y-34079393D02*
X120109179Y-34910120D01*
X92177077Y-66487488D02*
X92155891Y-66458175D01*
X128630287Y-33510000D02*
X128212049Y-32136453D01*
X127303198Y-30350013D02*
G75*
G02*
X127772709Y-31097336I-3862498J-2947787D01*
G01*
X73806886Y-165164441D02*
X76191082Y-165117412D01*
X155888146Y-151639327D02*
G75*
G02*
X154243475Y-152605651I-9864346J14906227D01*
G01*
X47701289Y-149550000D02*
X47867499Y-150277775D01*
X135467846Y-158584146D02*
X136718761Y-158232707D01*
X69937446Y-42062577D02*
X69381182Y-41168552D01*
X95250355Y-65143196D02*
X94514107Y-65435855D01*
X113430526Y-162506280D02*
X115678757Y-161995393D01*
X133357989Y-41405303D02*
X132860892Y-40551708D01*
X138935366Y-51619500D02*
X138287506Y-50463826D01*
X59931131Y-163283419D02*
X60834216Y-163654194D01*
X47513593Y-113722642D02*
X47396463Y-120746003D01*
X57603151Y-57352513D02*
X57413182Y-58250191D01*
X49510784Y-93030000D02*
X49387919Y-94001837D01*
X106952764Y-62308082D02*
G75*
G02*
X106724376Y-62377795I-452564J1073682D01*
G01*
X64095976Y-36736053D02*
G75*
G02*
X64328884Y-36649477I990224J-2307347D01*
G01*
X136078237Y-46480569D02*
X135648987Y-45750000D01*
X77491141Y-50171491D02*
X76082601Y-48570000D01*
X107211532Y-163574882D02*
X109217141Y-163372353D01*
X149455762Y-154627781D02*
X152205433Y-153552530D01*
X51243882Y-84587625D02*
X50999046Y-85619954D01*
X48198165Y-103798668D02*
X47905948Y-106869543D01*
X48602000Y-153669332D02*
X48665651Y-154202783D01*
X140121849Y-53670000D02*
X139582733Y-52752083D01*
X58174874Y-54727795D02*
X57984243Y-55560988D01*
X133951040Y-42586610D02*
X133357989Y-41405303D01*
X109217141Y-163372353D02*
X111116241Y-163043349D01*
X72778870Y-45150000D02*
X71191171Y-43549947D01*
X125677146Y-29502994D02*
G75*
G02*
X126260794Y-29640109I-387646J-2960806D01*
G01*
X139582733Y-52752083D02*
X138935366Y-51619500D01*
X163681080Y-142426368D02*
X164804993Y-140441040D01*
X59440488Y-49360738D02*
X59175185Y-50490000D01*
X129107964Y-34947337D02*
G75*
G02*
X128630282Y-33510001I11778636J4712537D01*
G01*
X81369288Y-54090000D02*
X80293440Y-53099702D01*
X55515194Y-65948250D02*
X55187284Y-67301079D01*
X124018164Y-160971826D02*
G75*
G02*
X122443352Y-161120268I-2475964J17839626D01*
G01*
X124585983Y-29600331D02*
G75*
G02*
X125099151Y-29487849I661717J-1792069D01*
G01*
X122436775Y-31770000D02*
X122009021Y-32363857D01*
X139391011Y-157527545D02*
X143034838Y-156595473D01*
X112364019Y-49530000D02*
X110826558Y-52907630D01*
X122009021Y-32363857D02*
X121402310Y-33187410D01*
X83622831Y-56267027D02*
X82553526Y-55168747D01*
X123123891Y-30842582D02*
G75*
G02*
X123651809Y-30240373I5202409J-4028118D01*
G01*
X48512458Y-153085380D02*
X48602000Y-153669332D01*
X91841963Y-65993038D02*
X91648280Y-65704658D01*
X136636249Y-47461500D02*
X136078237Y-46480569D01*
X47310000Y-145530000D02*
X47322187Y-146924430D01*
X106334897Y-62432220D02*
X105633920Y-62483474D01*
X117984613Y-161585716D02*
X120266718Y-161289747D01*
X61258894Y-43413905D02*
X60976756Y-44288625D01*
X150852046Y-75810000D02*
X149881713Y-73310886D01*
X49824834Y-156833141D02*
X50114515Y-157075049D01*
X89647492Y-63301709D02*
X88803294Y-62537215D01*
X58318907Y-54150000D02*
X58174874Y-54727795D01*
X146516601Y-66594585D02*
X145999202Y-65559041D01*
X145584311Y-64679883D02*
X144037307Y-61349214D01*
X58471231Y-53546936D02*
X58318907Y-54150000D01*
X110826558Y-52907630D02*
X109518852Y-55882950D01*
X88451011Y-164844817D02*
X91306810Y-164794317D01*
X95917176Y-64899695D02*
X95250355Y-65143196D01*
X65962098Y-36846435D02*
G75*
G02*
X66626249Y-37412036I-1764398J-2744565D01*
G01*
X76082601Y-48570000D02*
X75654677Y-48094915D01*
X59759548Y-48140902D02*
X59440488Y-49360738D01*
X167081907Y-127082023D02*
X167127757Y-122194046D01*
X91306810Y-164794317D02*
X93028402Y-164733186D01*
X156617316Y-89347484D02*
X155459426Y-86886915D01*
X51052877Y-157879002D02*
X51535894Y-158298691D01*
X54529421Y-69962582D02*
X54171238Y-71448000D01*
X56758971Y-60892513D02*
X56569515Y-61570859D01*
X51465342Y-83560729D02*
X51243882Y-84587625D01*
X123123891Y-30842582D02*
X122436775Y-31770000D01*
X78371011Y-165061764D02*
X80665375Y-165000924D01*
X47867499Y-150277775D02*
X48043545Y-151025625D01*
X98710078Y-164135062D02*
X100655732Y-163937247D01*
X84574092Y-57381288D02*
X83622831Y-56267027D01*
X167127757Y-122194046D02*
X166755031Y-119642023D01*
X63932072Y-36829057D02*
G75*
G02*
X64095975Y-36736051I499728J-689743D01*
G01*
X159746280Y-148141399D02*
X161013012Y-146678722D01*
X47475269Y-148467958D02*
X47701289Y-149550000D01*
X131651011Y-159688274D02*
X132232682Y-159540093D01*
X107053238Y-62205021D02*
G75*
G02*
X106952760Y-62308073I-172438J67621D01*
G01*
X94514107Y-65435855D02*
X93820288Y-65730923D01*
X107782225Y-60179446D02*
X107526654Y-60894948D01*
X152039190Y-78856735D02*
X150852046Y-75810000D01*
X163838497Y-109595572D02*
X162758755Y-106587396D01*
X47905948Y-106869543D02*
X47707188Y-109410000D01*
X118373226Y-37313583D02*
X117013072Y-39478472D01*
X93028402Y-164733186D02*
X94395524Y-164635965D01*
X114197385Y-45441332D02*
X113615678Y-46762500D01*
X60976756Y-44288625D02*
X60671579Y-45213978D01*
X55985003Y-161374460D02*
X56775927Y-161756635D01*
X61465176Y-42750000D02*
X61258894Y-43413905D01*
X145999202Y-65559041D02*
X145584311Y-64679883D01*
X136718761Y-158232707D02*
X138091917Y-157862266D01*
X47707188Y-109410000D02*
X47513593Y-113722642D01*
X100351381Y-63188217D02*
G75*
G02*
X101060668Y-63037155I1939519J-7365983D01*
G01*
X92205138Y-66494533D02*
G75*
G02*
X92177073Y-66487491I-9538J21433D01*
G01*
X126791011Y-29889056D02*
G75*
G02*
X127303195Y-30350016I-968311J-1590944D01*
G01*
X157695774Y-91956465D02*
X156617316Y-89347484D01*
X134591011Y-158849115D02*
X135467846Y-158584146D01*
X61828755Y-163971616D02*
X63611011Y-164453167D01*
X57984243Y-55560988D02*
X57783823Y-56479284D01*
X107526654Y-60894948D02*
X107298897Y-61529562D01*
X141109589Y-55440765D02*
X140121849Y-53670000D01*
X132318462Y-39789085D02*
X131590019Y-38910000D01*
X55986392Y-63930000D02*
X55802946Y-64736905D01*
X91648280Y-65704658D02*
X91019482Y-64829445D01*
X52725116Y-159300949D02*
X53757106Y-160090089D01*
X50114515Y-157075049D02*
X50556785Y-157452101D01*
X50358527Y-88043307D02*
X50046144Y-89477862D01*
X102273859Y-62852126D02*
X101060668Y-63037153D01*
X120266718Y-161289747D02*
X122443352Y-161120266D01*
X166596676Y-134310000D02*
X167036056Y-131970000D01*
X53757106Y-160090089D02*
X54670320Y-160697895D01*
X64832072Y-36544315D02*
G75*
G02*
X65160490Y-36532403I275128J-3052185D01*
G01*
X48855879Y-98070000D02*
X48530945Y-100700896D01*
X162531670Y-144409692D02*
X163681080Y-142426368D01*
X52791686Y-77374089D02*
X52529219Y-78450000D01*
X68553475Y-39861397D02*
X67575110Y-38537864D01*
X85403997Y-58508009D02*
X84574092Y-57381288D01*
X129786789Y-160072132D02*
X131651011Y-159688274D01*
X48043545Y-151025625D02*
X48204880Y-151691911D01*
X161768688Y-145650000D02*
X162531670Y-144409692D01*
X55493278Y-161141320D02*
G75*
G02*
X54670322Y-160697892I3449522J7387320D01*
G01*
X60671579Y-45213978D02*
X60388763Y-46050000D01*
X53603232Y-73890000D02*
X53376898Y-74889607D01*
X92875166Y-66185153D02*
X92517294Y-66353351D01*
X64328885Y-36649479D02*
G75*
G02*
X64586876Y-36581351I834115J-2636121D01*
G01*
X167036056Y-131970000D02*
X167081907Y-127082023D01*
X127772709Y-31097336D02*
G75*
G02*
X128212048Y-32136453I-7193309J-3653764D01*
G01*
X137744376Y-49470000D02*
X137221242Y-48510290D01*
X47328418Y-130748895D02*
X47310000Y-145530000D01*
X65405894Y-36566817D02*
G75*
G02*
X65646123Y-36661339I-294294J-1100483D01*
G01*
X64586876Y-36581351D02*
G75*
G02*
X64832072Y-36544316I430524J-2020149D01*
G01*
X69381182Y-41168552D02*
X68553475Y-39861397D01*
X98853859Y-63752647D02*
X98206117Y-64026678D01*
X124115790Y-29847645D02*
G75*
G02*
X124585984Y-29600333I1177710J-1668455D01*
G01*
X48204880Y-151691911D02*
X48317320Y-152130000D01*
X73821470Y-46199359D02*
X72778870Y-45150000D01*
X105633920Y-62483474D02*
X104978451Y-62535207D01*
X160392965Y-99630000D02*
X158879096Y-95177806D01*
X65160490Y-36532406D02*
G75*
G02*
X65405892Y-36566824I-17690J-1018194D01*
G01*
X165567875Y-138736934D02*
X165892069Y-137596422D01*
X134778474Y-44202004D02*
X134321388Y-43332330D01*
X51623640Y-82710000D02*
X51465342Y-83560729D01*
X107298897Y-61529562D02*
X107105419Y-62066355D01*
X71191171Y-43549947D02*
X70449987Y-42740651D01*
X147049665Y-67618248D02*
X146516601Y-66594585D01*
X80665375Y-165000924D02*
X83411011Y-164938129D01*
X149881713Y-73310886D02*
X149172227Y-71643557D01*
X138287506Y-50463826D02*
X137744376Y-49470000D01*
X56953119Y-60180847D02*
X56758971Y-60892513D01*
X161768688Y-145650000D02*
G75*
G02*
X161013012Y-146678722I-8733888J5623800D01*
G01*
X166755031Y-119642023D02*
X166435857Y-117654818D01*
X53089895Y-76120500D02*
X52791686Y-77374089D01*
X94395524Y-164635965D02*
X95891011Y-164473609D01*
X87957863Y-61751146D02*
X87168191Y-60887298D01*
X114602821Y-44490000D02*
X114197385Y-45441332D01*
X95891011Y-164473609D02*
X98710078Y-164135062D01*
X111116241Y-163043349D02*
X113430526Y-162506280D01*
X144037307Y-61349214D02*
X142492934Y-58165672D01*
X132232682Y-159540093D02*
X133009636Y-159323814D01*
X60834216Y-163654194D02*
X61828755Y-163971616D01*
X83411011Y-164938129D02*
X86156656Y-164882738D01*
X49780139Y-91046394D02*
X49510784Y-93030000D01*
X51535894Y-158298691D02*
X52725116Y-159300949D01*
X129752002Y-36311892D02*
G75*
G02*
X129107963Y-34947337I10959698J6006992D01*
G01*
X98206117Y-64026678D02*
X97412534Y-64343404D01*
X71574444Y-165197187D02*
X73806886Y-165164441D01*
X48665651Y-154202783D02*
X48803674Y-155167477D01*
X78943284Y-51731328D02*
X77491141Y-50171491D01*
X148459170Y-70188216D02*
X147512649Y-68459883D01*
X157390033Y-150518986D02*
G75*
G02*
X155888142Y-151639321I-10687333J12760286D01*
G01*
X103144471Y-62736801D02*
X102273859Y-62852126D01*
X113615678Y-46762500D02*
X112973886Y-48194786D01*
X92517294Y-66353351D02*
X92205138Y-66494533D01*
X117013072Y-39478472D02*
X115821833Y-41752153D01*
X100655732Y-163937247D02*
X102410784Y-163811401D01*
X58940701Y-51538404D02*
X58694850Y-52604625D01*
X47322187Y-146924430D02*
X47368301Y-147729801D01*
X158409765Y-149571559D02*
G75*
G02*
X157390034Y-150518987I-9712165J9430859D01*
G01*
X145540606Y-155908249D02*
X147534398Y-155295704D01*
X74815950Y-47218875D02*
X73821470Y-46199359D01*
X58571011Y-162634230D02*
X59931131Y-163283419D01*
X55493278Y-161141320D02*
X55985003Y-161374460D01*
X69911011Y-165207363D02*
X71574444Y-165197187D01*
X106724377Y-62377799D02*
G75*
G02*
X106334897Y-62432224I-689777J3515399D01*
G01*
X162758755Y-106587396D02*
X161694101Y-103506381D01*
X57783823Y-56479284D02*
X57603151Y-57352513D01*
X161694101Y-103506381D02*
X160392965Y-99630000D01*
X134321388Y-43332330D02*
X133951040Y-42586610D01*
X137221242Y-48510290D02*
X136636249Y-47461500D01*
X158409765Y-149571559D02*
X159746280Y-148141399D01*
X62258850Y-40244779D02*
X61465176Y-42750000D01*
X53376898Y-74889607D02*
X53089895Y-76120500D01*
X147534398Y-155295704D02*
X149455762Y-154627781D01*
X104531011Y-163713493D02*
X107211532Y-163574882D01*
X165741118Y-114830726D02*
X165181992Y-113230134D01*
X155459426Y-86886915D02*
X154667870Y-85187328D01*
X54863348Y-68610000D02*
X54529421Y-69962582D01*
X133837002Y-159081861D02*
X134591011Y-158849115D01*
X48317320Y-152130000D02*
X48412384Y-152538549D01*
X126260797Y-29640102D02*
G75*
G02*
X126791006Y-29889064I-886297J-2576598D01*
G01*
X120109179Y-34910120D02*
X118373226Y-37313583D01*
X49387919Y-94001837D02*
X49216735Y-95327250D01*
X75654677Y-48094915D02*
X74815950Y-47218875D01*
X80293440Y-53099702D02*
X78943284Y-51731328D01*
X166231948Y-136139924D02*
X166596676Y-134310000D01*
X138091917Y-157862266D02*
X139391011Y-157527545D01*
X147512649Y-68459883D02*
X147049665Y-67618248D01*
X49030304Y-96753446D02*
X48855879Y-98070000D01*
X102410784Y-163811401D02*
X104531011Y-163713493D01*
X92009817Y-66242068D02*
X91841963Y-65993038D01*
X49327362Y-156340563D02*
G75*
G02*
X49007157Y-155825751I1649038J1382663D01*
G01*
X126890760Y-160549142D02*
X129786789Y-160072132D01*
X53841679Y-72843491D02*
X53603232Y-73890000D01*
X165181992Y-113230134D02*
X163838497Y-109595572D01*
X54171238Y-71448000D02*
X53841679Y-72843491D01*
X48412384Y-152538549D02*
X48512458Y-153085380D01*
X50767842Y-86490000D02*
X50358527Y-88043307D01*
X57413182Y-58250191D02*
X57184334Y-59243175D01*
X47475269Y-148467958D02*
G75*
G02*
X47368298Y-147729801I7814331J1509258D01*
G01*
X99722324Y-63392984D02*
G75*
G02*
X100351381Y-63188216I2101776J-5388116D01*
G01*
X58694850Y-52604625D02*
X58471231Y-53546936D01*
X90369160Y-64047128D02*
X89647492Y-63301709D01*
X49007159Y-155825750D02*
G75*
G02*
X48803672Y-155167477I2740541J1207750D01*
G01*
X125099151Y-29487851D02*
G75*
G02*
X125677146Y-29502997I216449J-2776149D01*
G01*
X124018164Y-160971826D02*
X126890760Y-160549142D01*
X88803294Y-62537215D02*
X87957863Y-61751146D01*
X57676740Y-162195305D02*
X58571011Y-162634230D01*
X87168191Y-60887298D02*
X86348158Y-59845502D01*
X50999046Y-85619954D02*
X50767842Y-86490000D01*
X57184334Y-59243175D02*
X56953119Y-60180847D01*
X133009636Y-159323814D02*
X133837002Y-159081861D01*
X63611011Y-164453167D02*
X66491011Y-165207733D01*
X104978451Y-62535207D02*
X104092952Y-62626181D01*
X109518852Y-55882950D02*
X108474880Y-58369725D01*
X153395968Y-82182321D02*
X152039190Y-78856735D01*
X52018021Y-80691375D02*
X51784843Y-81827260D01*
X108474880Y-58369725D02*
X107782225Y-60179446D01*
X82553526Y-55168747D02*
X81369288Y-54090000D01*
X49216735Y-95327250D02*
X49030304Y-96753446D01*
X132318462Y-39789085D02*
G75*
G02*
X132860891Y-40551709I-7767962J-6099315D01*
G01*
X92155891Y-66458175D02*
X92009817Y-66242068D01*
X86348158Y-59845502D02*
X85403997Y-58508009D01*
X154667870Y-85187328D02*
X153395968Y-82182321D01*
X51784843Y-81827260D02*
X51623640Y-82710000D01*
X56148660Y-63225605D02*
X55986392Y-63930000D01*
X112973886Y-48194786D02*
X112364019Y-49530000D01*
M02*
