%TF.GenerationSoftware,KiCad,Pcbnew,9.99.0-4247-g42f93c0d15*%
%TF.CreationDate,2026-05-04T15:22:08-04:00*%
%TF.ProjectId,toro-blinky,746f726f-2d62-46c6-996e-6b792e6b6963,rev?*%
%TF.SameCoordinates,Original*%
%TF.FileFunction,Soldermask,Top*%
%TF.FilePolarity,Negative*%
%FSLAX46Y46*%
G04 Gerber Fmt 4.6, Leading zero omitted, Abs format (unit mm)*
G04 Created by KiCad (PCBNEW 9.99.0-4247-g42f93c0d15) date 2026-05-04 15:22:08*
%MOMM*%
%LPD*%
G01*
G04 APERTURE LIST*
G04 Aperture macros list*
%AMRoundRect*
0 Rectangle with rounded corners*
0 $1 Rounding radius*
0 $2 $3 $4 $5 $6 $7 $8 $9 X,Y pos of 4 corners*
0 Add a 4 corners polygon primitive as box body*
4,1,4,$2,$3,$4,$5,$6,$7,$8,$9,$2,$3,0*
0 Add four circle primitives for the rounded corners*
1,1,$1+$1,$2,$3*
1,1,$1+$1,$4,$5*
1,1,$1+$1,$6,$7*
1,1,$1+$1,$8,$9*
0 Add four rect primitives between the rounded corners*
20,1,$1+$1,$2,$3,$4,$5,0*
20,1,$1+$1,$4,$5,$6,$7,0*
20,1,$1+$1,$6,$7,$8,$9,0*
20,1,$1+$1,$8,$9,$2,$3,0*%
G04 Aperture macros list end*
%ADD10RoundRect,0.412500X0.412500X0.412500X-0.412500X0.412500X-0.412500X-0.412500X0.412500X-0.412500X0*%
%ADD11C,1.650000*%
%ADD12C,1.600000*%
%ADD13R,1.800000X1.800000*%
%ADD14C,1.800000*%
%ADD15R,1.295400X1.295400*%
%ADD16C,1.295400*%
%ADD17RoundRect,0.250000X-0.550000X0.550000X-0.550000X-0.550000X0.550000X-0.550000X0.550000X0.550000X0*%
%ADD18RoundRect,0.250000X-0.550000X-0.550000X0.550000X-0.550000X0.550000X0.550000X-0.550000X0.550000X0*%
%ADD19R,1.700000X1.700000*%
%ADD20C,1.700000*%
%ADD21RoundRect,0.250000X0.550000X0.550000X-0.550000X0.550000X-0.550000X-0.550000X0.550000X-0.550000X0*%
G04 APERTURE END LIST*
D10*
%TO.C,RV1*%
X112500000Y-133200000D03*
D11*
X109960000Y-133200000D03*
X107420000Y-133200000D03*
%TD*%
D12*
%TO.C,R2*%
X128900000Y-60430000D03*
X128900000Y-52810000D03*
%TD*%
D13*
%TO.C,D6*%
X125520000Y-41220000D03*
D14*
X122980000Y-41220000D03*
%TD*%
D13*
%TO.C,D4*%
X81280000Y-67320000D03*
D14*
X83820000Y-67320000D03*
%TD*%
D13*
%TO.C,D1*%
X134180000Y-60000000D03*
D14*
X136720000Y-60000000D03*
%TD*%
D13*
%TO.C,D8*%
X155000000Y-110000000D03*
D14*
X152460000Y-110000000D03*
%TD*%
D13*
%TO.C,D9*%
X55640000Y-128180000D03*
D14*
X58180000Y-128180000D03*
%TD*%
D15*
%TO.C,U2*%
X120710000Y-116150000D03*
D16*
X120710000Y-113610000D03*
X120710000Y-111070000D03*
X120710000Y-108530000D03*
X120710000Y-105990000D03*
X120710000Y-103450000D03*
X120710000Y-100910000D03*
X120710000Y-98370000D03*
X113090000Y-98370000D03*
X113090000Y-100910000D03*
X113090000Y-103450000D03*
X113090000Y-105990000D03*
X113090000Y-108530000D03*
X113090000Y-111070000D03*
X113090000Y-113610000D03*
X113090000Y-116150000D03*
%TD*%
D12*
%TO.C,R1*%
X143280000Y-139110000D03*
X135660000Y-139110000D03*
%TD*%
D17*
%TO.C,U1*%
X97070000Y-115235000D03*
D12*
X94530000Y-115235000D03*
X91990000Y-115235000D03*
X89450000Y-115235000D03*
X89450000Y-122855000D03*
X91990000Y-122855000D03*
X94530000Y-122855000D03*
X97070000Y-122855000D03*
%TD*%
D18*
%TO.C,C2*%
X78000000Y-130000000D03*
D12*
X80000000Y-130000000D03*
%TD*%
D19*
%TO.C,J2*%
X103850000Y-111630000D03*
D20*
X103850000Y-109090000D03*
%TD*%
D12*
%TO.C,C1*%
X88000000Y-135000000D03*
D21*
X90000000Y-135000000D03*
%TD*%
D13*
%TO.C,D7*%
X150000000Y-120000000D03*
D14*
X147460000Y-120000000D03*
%TD*%
D13*
%TO.C,D3*%
X116730000Y-63500000D03*
D14*
X114190000Y-63500000D03*
%TD*%
D13*
%TO.C,D5*%
X64140000Y-130090000D03*
D14*
X66680000Y-130090000D03*
%TD*%
D19*
%TO.C,J1*%
X127730000Y-127130000D03*
D20*
X130270000Y-127130000D03*
%TD*%
D13*
%TO.C,D2*%
X65390000Y-50820000D03*
D14*
X67930000Y-50820000D03*
%TD*%
D13*
%TO.C,D10*%
X62750000Y-71080000D03*
D14*
X60210000Y-71080000D03*
%TD*%
M02*
