M48
; DRILL file KiCad 9.99.0-4247-g42f93c0d15 date 2026-05-04T15:22:16-0400
; FORMAT={-:-/ absolute / metric / decimal}
; #@! TF.CreationDate,2026-05-04T15:22:16-04:00
; #@! TF.GenerationSoftware,Kicad,Pcbnew,9.99.0-4247-g42f93c0d15
; #@! TF.FileFunction,Plated,1,2,PTH
FMAT,2
METRIC
; #@! TA.AperFunction,Plated,PTH,ViaDrill
T1C0.300
; #@! TA.AperFunction,Plated,PTH,ComponentDrill
T2C0.787
; #@! TA.AperFunction,Plated,PTH,ComponentDrill
T3C0.800
; #@! TA.AperFunction,Plated,PTH,ComponentDrill
T4C0.850
; #@! TA.AperFunction,Plated,PTH,ComponentDrill
T5C0.900
; #@! TA.AperFunction,Plated,PTH,ComponentDrill
T6C1.000
%
G90
G05
T1
X90.25Y-118.25
X95.57Y-97.18
X105.82Y-97.73
X116.91Y-95.73
X124.65Y-111.01
T2
X113.09Y-98.37
X113.09Y-100.91
X113.09Y-103.45
X113.09Y-105.99
X113.09Y-108.53
X113.09Y-111.07
X113.09Y-113.61
X113.09Y-116.15
X120.71Y-98.37
X120.71Y-100.91
X120.71Y-103.45
X120.71Y-105.99
X120.71Y-108.53
X120.71Y-111.07
X120.71Y-113.61
X120.71Y-116.15
T3
X78.0Y-130.0
X80.0Y-130.0
X88.0Y-135.0
X89.45Y-115.235
X89.45Y-122.855
X90.0Y-135.0
X91.99Y-115.235
X91.99Y-122.855
X94.53Y-115.235
X94.53Y-122.855
X97.07Y-115.235
X97.07Y-122.855
X128.9Y-52.81
X128.9Y-60.43
X135.66Y-139.11
X143.28Y-139.11
T4
X107.42Y-133.2
X109.96Y-133.2
X112.5Y-133.2
T5
X55.64Y-128.18
X58.18Y-128.18
X60.21Y-71.08
X62.75Y-71.08
X64.14Y-130.09
X65.39Y-50.82
X66.68Y-130.09
X67.93Y-50.82
X81.28Y-67.32
X83.82Y-67.32
X114.19Y-63.5
X116.73Y-63.5
X122.98Y-41.22
X125.52Y-41.22
X134.18Y-60.0
X136.72Y-60.0
X147.46Y-120.0
X150.0Y-120.0
X152.46Y-110.0
X155.0Y-110.0
T6
X103.85Y-109.09
X103.85Y-111.63
X127.73Y-127.13
X130.27Y-127.13
M30
